<svg width="11" height="11" viewBox="0 0 11 11" fill="none" xmlns="http://www.w3.org/2000/svg">
<path d="M3.75 10.175L2 8.9C2.36667 8.4 2.70833 7.95 3.025 7.55C3.34167 7.15 3.68333 6.76667 4.05 6.4L3.875 5.825C3.35833 5.74167 2.85 5.63333 2.35 5.5C1.86667 5.36667 1.325 5.19167 0.725 4.975L1.4 2.925C2 3.10833 2.53333 3.29167 3 3.475C3.48333 3.64167 3.95833 3.85 4.425 4.1L4.9 3.725C4.83333 3.20833 4.78333 2.7 4.75 2.2C4.71667 1.7 4.70833 1.13333 4.725 0.499999H6.925C6.925 1.13333 6.90833 1.7 6.875 2.2C6.85833 2.7 6.80833 3.20833 6.725 3.725L7.2 4.1C7.68333 3.85 8.15833 3.64167 8.625 3.475C9.10833 3.29167 9.64167 3.10833 10.225 2.925L10.9 4.975C10.3 5.19167 9.75833 5.36667 9.275 5.5C8.79167 5.63333 8.28333 5.74167 7.75 5.825L7.575 6.4C7.94167 6.76667 8.28333 7.15 8.6 7.55C8.93333 7.95 9.275 8.4 9.625 8.9L7.9 10.175C7.51667 9.675 7.18333 9.21667 6.9 8.8C6.61667 8.36667 6.35833 7.91667 6.125 7.45H5.5C5.26667 7.91667 5.00833 8.36667 4.725 8.8C4.45833 9.21667 4.13333 9.675 3.75 10.175Z" fill="#DD0202"/>
</svg>
